<svg width="250" height="250" viewBox="0 0 250 250" fill="none" xmlns="http://www.w3.org/2000/svg">
<rect x="0.5" y="0.5" width="249" height="249" rx="124.5" stroke="white"/>
<path d="M182.269 165V164.5H181.769H110.154H109.654V165V185V185.5H110.154H181.769H182.269V185V165ZM182.269 115V114.5H181.769H110.154H109.654V115V135V135.5H110.154H181.769H182.269V135V115ZM105.038 155.5H186.885C189.433 155.5 191.5 157.537 191.5 160V190C191.5 192.463 189.433 194.5 186.885 194.5H105.038C102.49 194.5 100.423 192.463 100.423 190V160C100.423 157.537 102.49 155.5 105.038 155.5ZM120.385 182C116.453 182 113.212 178.861 113.212 175C113.212 171.139 116.453 168 120.385 168C124.316 168 127.558 171.139 127.558 175C127.558 178.863 124.365 182 120.385 182ZM105.038 105.5H186.885C189.433 105.5 191.5 107.537 191.5 110V140C191.5 142.463 189.433 144.5 186.885 144.5H105.038C102.49 144.5 100.423 142.463 100.423 140V110C100.423 107.537 102.49 105.5 105.038 105.5ZM120.385 132C116.453 132 113.212 128.861 113.212 125C113.212 121.139 116.453 118 120.385 118C124.314 118 127.558 121.187 127.558 125C127.558 128.815 124.363 132 120.385 132Z" fill="white" stroke="white"/>
<path d="M96.8318 109.5H96.8282H96.8231H96.8179H96.8127H96.8075H96.8023H96.7971H96.7918H96.7866H96.7813H96.7761H96.7708H96.7655H96.7602H96.7549H96.7496H96.7443H96.739H96.7336H96.7283H96.7229H96.7176H96.7122H96.7068H96.7014H96.696H96.6906H96.6852H96.6798H96.6744H96.6689H96.6635H96.6581H96.6526H96.6471H96.6417H96.6362H96.6307H96.6252H96.6197H96.6142H96.6086H96.6031H96.5976H96.592H96.5865H96.5809H96.5754H96.5698H96.5642H96.5587H96.5531H96.5475H96.5419H96.5363H96.5307H96.525H96.5194H96.5138H96.5082H96.5025H96.4969H96.4912H96.4856H96.4799H96.4742H96.4686H96.4629H96.4572H96.4515H96.4458H96.4401H96.4344H96.4287H96.423H96.4173H96.4116H96.4058H96.4001H96.3944H96.3886H96.3829H96.3772H96.3714H96.3657H96.3599H96.3541H96.3484H96.3426H96.3368H96.3311H96.3253H96.3195H96.3137H96.3079H96.3021H96.2963H96.2905H96.2847H96.2789H96.2731H96.2673H96.2615H96.2557H96.2499H96.2441H96.2383H96.2325H96.2266H96.2208H96.215H96.2092H96.2033H96.1975H96.1917H96.1858H96.18H96.1742H96.1683H96.1625H96.1567H96.1508H96.145H96.1391H96.1333H96.1274H96.1216H96.1158H96.1099H96.1041H96.0982H96.0924H96.0865H96.0807H96.0748H96.069H96.0632H96.0573H96.0515H96.0456H96.0398H96.0339H96.0281H96.0223H96.0164H96.0106H96.0047H95.9989H95.9931H95.9872H95.9814H95.9756H95.9697H95.9639H95.9581H95.9523H95.9464H95.9406H95.9348H95.929H95.9232H95.9174H95.9115H95.9057H95.8999H95.8941H95.8883H95.8825H95.8767H95.8709H95.8652H95.8594H95.8536H95.8478H95.842H95.8362H95.8305H95.8247H95.8189H95.8132H95.8074H95.8017H95.7959H95.7902H95.7844H95.7787H95.773H95.7672H95.7615H95.7558H95.7501H95.7444H95.7387H95.733H95.7273H95.7216H95.7159H95.7102H95.7045H95.6988H95.6932H95.6875H95.6819H95.6762H95.6706H95.6649H95.6593H95.6537H95.648H95.6424H95.6368H95.6312H95.6256H95.62H95.6144H95.6088H95.6033H95.5977H95.5921H95.5866H95.581H95.5755H95.57H95.5644H95.5589H95.5534H95.5479H95.5424H95.5369H95.5314H95.526H95.5205H95.515H95.5096H95.5041H95.4987H95.4933H95.4878H95.4824H95.477H95.4716H95.4662H95.4609H95.4555H95.4501H95.4448H95.4394H95.4341H95.4288H95.4235H95.4182H95.4129H95.4076H95.4023H95.397H95.3918H95.3865H95.3813H95.376H95.3708H95.3656H95.3604H95.3552H95.35H95.3448H95.3397H95.3345H95.3294H95.3243H95.3191H95.314H95.3089H95.3038H95.2988H95.2937H95.2886H95.2836H95.2786H95.2735H95.2685H95.2635H95.2585H95.2536H95.2486H95.2436H95.2387H95.2338H95.2289H95.224H95.2191H95.2142H95.2093H95.2045H95.1996H95.1948H95.19H95.1852H95.1804H95.1756H95.1708H95.1661H95.1613H95.1566H95.1519H95.1472H95.1425H95.1378H95.1332H95.1285H95.1239H95.1193H95.1147H95.1101H95.1055H95.1009H95.0964H95.0918H95.0873H95.0828H95.0783H95.0738H95.0694H95.0649H95.0605H95.0561H95.0517H95.0473H95.0429H95.0385H95.0342H95.0299H95.0256H95.0213H95.017H95.0127H95.0085H95.0042H95H94.9958H94.9916H94.9874H94.9833H94.9792H94.975H94.9709H94.9668H94.9628H94.9587H94.9547H94.9506H94.9466H94.9426H94.9387H94.9347H94.9308H94.9269H94.923H94.9191H94.9152H94.9114H94.9075H94.9037H94.8999H94.8961H94.8924H94.8886H94.8849H94.8812H94.8775H94.8738H94.8702H94.8666H94.8629H94.8593H94.8558H94.8522H94.8487H94.8451H94.8416H94.8382H94.8347H94.8313H94.8278H94.8244H94.821H94.8177H94.8143H94.811H94.8077C86.8959 109.5 78.0733 112.022 72.9483 114.552L73.1696 115.5H96.8049C96.7916 115.757 96.7972 116.011 96.8084 116.254C96.8154 116.408 96.8243 116.554 96.833 116.697C96.8496 116.97 96.8654 117.229 96.8654 117.5V124.5H59.5V117.5C59.5 114.775 60.8898 112.35 63.2468 110.222C65.6067 108.091 68.8994 106.295 72.5974 104.847C79.9935 101.951 88.8835 100.5 94.8077 100.5C96.2413 100.5 98.6292 100.5 101.043 100.808C102.569 101.003 104.064 101.316 105.324 101.808C100.216 101.954 96.7845 105.957 96.8318 109.5ZM112.212 72.5C112.212 81.8632 104.415 89.5 94.8077 89.5C85.2003 89.5 77.4038 81.8632 77.4038 72.5C77.4038 63.1368 85.2003 55.5 94.8077 55.5C104.415 55.5 112.212 63.1368 112.212 72.5ZM102.981 72.5C102.981 68.0632 99.3188 64.5 94.8077 64.5C90.2966 64.5 86.6346 68.0632 86.6346 72.5C86.6346 76.9368 90.2966 80.5 94.8077 80.5C99.3188 80.5 102.981 76.9368 102.981 72.5Z" fill="white" stroke="white"/>
</svg>
